PathFileType	4	(X/Y/Z)	./resultDataOpenSim/trcMotMarkerGrf/sub09/qtm-12-07.trc
DataRate	CameraRate	NumFrames	NumMarkers	Units	OrigDataRate	OrigDataStartFrame	OrigNumFrames
250.000000	250.000000	13	24	m	250.000000	178	473
Frame#	Time	L.Toe.Tip			R.Toe.Tip			L.Ankle.Lat			R.Ankle.Lat			L.Ankle.Med			R.Ankle.Med			L.Heel			R.Heel			L.Knee.Lat			R.Knee.Lat			L.Knee.Med			R.Knee.Med			L.Thigh.Upper			R.Thigh.Upper			L.ASIS			R.ASIS			V.Sacral			L.Acromium			R.Acromium			C7			L.Elbow			R.Elbow			L.Wrist.Lat			R.Wrist.Lat
		X1	Y1	Z1	X2	Y2	Z2	X3	Y3	Z3	X4	Y4	Z4	X5	Y5	Z5	X6	Y6	Z6	X7	Y7	Z7	X8	Y8	Z8	X9	Y9	Z9	X10	Y10	Z10	X11	Y11	Z11	X12	Y12	Z12	X13	Y13	Z13	X14	Y14	Z14	X15	Y15	Z15	X16	Y16	Z16	X17	Y17	Z17	X18	Y18	Z18	X19	Y19	Z19	X20	Y20	Z20	X21	Y21	Z21	X22	Y22	Z22	X23	Y23	Z23	X24	Y24	Z24

178	0.708	0.13943159	0.015985193	0.025623581	-0.64522143	0.049657034	0.11403289	-0.011451386	0.047249211	-0.012180181	-0.727011	0.1707455	0.15987499	0.008784648	0.069777823	0.082947366	-0.68256587	0.18485499	0.072611465	-0.080440004	0.01197533	0.036041626	-0.78037995	0.20424841	0.10254345	-0.0022038456	0.46015512	-0.075507234	-0.34103804	0.42538163	0.22711162	-0.0029957678	0.46816945	0.049711262	-0.34481702	0.40573551	0.098857213	-0.22431185	0.81923811	-0.12131768	-0.27951842	0.81527838	0.25128868	-0.16206119	0.9074129	-0.051669892	-0.16797423	0.89675346	0.18886525	-0.33274565	0.95271671	0.060359602	-0.18660764	1.3473804	-0.11117453	-0.19523564	1.3664409	0.2207142	-0.25719587	1.4073616	0.054879117	-0.35919308	1.0260027	-0.15836603	-0.2955406	1.013578	0.32204742	-0.28213211	0.78137493	-0.21847136	-0.093883935	0.82461955	0.33175213
179	0.712	0.13952504	0.015790521	0.026060231	-0.64217927	0.051478038	0.11501511	-0.011346275	0.047100085	-0.011949825	-0.71869351	0.17683204	0.16095311	0.0088372353	0.06950686	0.083279551	-0.67312444	0.18894741	0.074023959	-0.080463741	0.011941686	0.036024756	-0.77027379	0.21175569	0.10296581	0.0031194651	0.45953239	-0.076214669	-0.33029585	0.42396581	0.2280131	0.0034806104	0.46775428	0.049225678	-0.33142828	0.40307464	0.099596871	-0.2177158	0.81989164	-0.12211444	-0.27186438	0.81462718	0.25076675	-0.15532846	0.90819545	-0.052579206	-0.1611458	0.89669705	0.18795171	-0.32553032	0.95265659	0.060223033	-0.17914362	1.3474787	-0.11127937	-0.18798764	1.366772	0.22048471	-0.2502436	1.4074258	0.054687067	-0.3512647	1.0259328	-0.15847637	-0.29002469	1.0145653	0.32171557	-0.27347762	0.78136083	-0.21858064	-0.089775129	0.82409658	0.33205622
180	0.716	0.1395616	0.015623596	0.026441784	-0.63870011	0.053389513	0.1160762	-0.011217107	0.046912699	-0.011724352	-0.70962173	0.18301848	0.16200317	0.0088484836	0.069230417	0.083625596	-0.66328507	0.19281606	0.075321862	-0.080521671	0.011902158	0.036069378	-0.75959393	0.21913409	0.10345337	0.0080420941	0.45867393	-0.076717997	-0.31939332	0.42265134	0.22872988	0.0094591894	0.46683558	0.048851294	-0.31789059	0.40059255	0.10033427	-0.21099706	0.82041858	-0.1227345	-0.26432929	0.81408485	0.25020502	-0.1486157	0.90889778	-0.053409528	-0.15440478	0.89673766	0.18709933	-0.31844536	0.95269995	0.059884039	-0.17170216	1.3476385	-0.11137425	-0.18074428	1.3671194	0.22028296	-0.24344313	1.4075869	0.05448692	-0.34340354	1.0259215	-0.1585587	-0.28443689	1.015577	0.32143891	-0.26473428	0.78139781	-0.21866563	-0.085676108	0.82359228	0.33234761
181	0.72	0.1395952	0.015475801	0.026709603	-0.63464421	0.055442196	0.11717048	-0.010996997	0.046698964	-0.011529335	-0.69994434	0.18907705	0.1630374	0.008964654	0.068975376	0.083921754	-0.65314517	0.1965683	0.076511588	-0.080561888	0.0118951	0.036148746	-0.74850093	0.22635692	0.10423731	0.012534416	0.45763564	-0.076967314	-0.30798618	0.42146443	0.22938176	0.01491001	0.46557846	0.048526446	-0.30437556	0.39844286	0.10102967	-0.20421029	0.82083341	-0.12320323	-0.25693982	0.81366075	0.24961885	-0.1419553	0.90953006	-0.054155431	-0.14777301	0.89688404	0.18632289	-0.31169138	0.95282855	0.059217106	-0.16428438	1.3478671	-0.1114673	-0.17354418	1.3674826	0.22009177	-0.23672818	1.4078499	0.054174126	-0.33558409	1.0259623	-0.1587153	-0.27883958	1.0166143	0.32124499	-0.25591412	0.78148997	-0.21874047	-0.081604137	0.82310428	0.33262416
182	0.724	0.13964399	0.015357873	0.026871282	-0.62994997	0.057661665	0.11827679	-0.01068279	0.046477731	-0.011396853	-0.68980715	0.19483443	0.16407035	0.0092098645	0.068757003	0.084127629	-0.64267286	0.20029954	0.077636136	-0.080569308	0.011932542	0.036207126	-0.73715996	0.23339033	0.10541634	0.016543839	0.45650792	-0.076923552	-0.29615172	0.42033561	0.22992309	0.019826912	0.46417291	0.048214817	-0.29094584	0.3967066	0.10163483	-0.19743414	0.82117072	-0.12357645	-0.24968346	0.81336164	0.2490165	-0.13538734	0.91011389	-0.05482204	-0.14126578	0.89714686	0.18563006	-0.30542976	0.95301115	0.058080649	-0.15688912	1.3481703	-0.1115682	-0.16642806	1.3678651	0.21989526	-0.22996206	1.408251	0.053664093	-0.32773371	1.0260394	-0.15911089	-0.27327939	1.0176779	0.32116274	-0.24701887	0.78164514	-0.21879905	-0.077588741	0.82262754	0.33287852
183	0.728	0.1397074	0.015274853	0.026945027	-0.62461949	0.060046058	0.11939758	-0.010304405	0.046261824	-0.011345147	-0.67924735	0.20026344	0.16511143	0.0095363459	0.068576171	0.084235161	-0.63182503	0.20407365	0.078726237	-0.080547402	0.012002721	0.036206809	-0.72561551	0.24023664	0.10688196	0.020134359	0.45539903	-0.076617018	-0.28407544	0.41925073	0.23030543	0.024192849	0.46276456	0.047900921	-0.27755744	0.39539599	0.1021207	-0.19073411	0.82147281	-0.12391426	-0.24248488	0.813201	0.24838447	-0.12894602	0.91066407	-0.055424592	-0.13488384	0.89752386	0.18501941	-0.29960346	0.95329711	0.05659655	-0.14951804	1.3485453	-0.11168684	-0.15941752	1.3682739	0.21969721	-0.22305405	1.4088259	0.053025974	-0.3198168	1.0261477	-0.15974698	-0.26775598	1.0187645	0.32119888	-0.23803963	0.78186908	-0.2188227	-0.073642253	0.82215686	0.33310845
184	0.732	0.13977907	0.015215705	0.02694883	-0.61860829	0.062611464	0.12054797	-0.0099028448	0.04605045	-0.011360387	-0.6682783	0.20538868	0.16613533	0.0098912307	0.068426064	0.08426324	-0.62066841	0.20790788	0.079769212	-0.08050583	0.01208277	0.036151177	-0.71382523	0.24693505	0.10843931	0.023539678	0.4544044	-0.076199841	-0.27187122	0.41833375	0.23059368	0.027974396	0.46143591	0.047578092	-0.26420384	0.39448579	0.10245203	-0.18413604	0.82178074	-0.12425756	-0.23526549	0.81319852	0.24770956	-0.1226317	0.91118947	-0.055972534	-0.12861915	0.89799951	0.18448748	-0.29394043	0.95382658	0.055226717	-0.14218216	1.3489856	-0.1118311	-0.15250575	1.368718	0.219518	-0.21603232	1.4095691	0.05242046	-0.3118779	1.0263032	-0.16043485	-0.26224363	1.019872	0.32133598	-0.22896689	0.78216395	-0.2187979	-0.069757523	0.82169004	0.33332139
185	0.736	0.13984742	0.015164791	0.026913805	-0.61175145	0.065421278	0.12175904	-0.009524445	0.045839518	-0.011403733	-0.65697914	0.21023777	0.16708234	0.010237161	0.068298169	0.084247208	-0.60931154	0.21178372	0.080719615	-0.080459837	0.012154107	0.036075048	-0.70177076	0.2534918	0.10993846	0.026993007	0.45355719	-0.075854608	-0.25957725	0.41773254	0.23086966	0.031208024	0.4602479	0.047270973	-0.25094738	0.39395674	0.10258653	-0.17762572	0.82214075	-0.12462162	-0.22806347	0.81336412	0.24702425	-0.11640164	0.91170777	-0.056457649	-0.12245962	0.89856286	0.1840373	-0.28820961	0.95470154	0.054400688	-0.13489342	1.349492	-0.11199754	-0.14568022	1.3692082	0.21937543	-0.20896723	1.4104384	0.051937506	-0.30398107	1.0265235	-0.16105058	-0.2567256	1.0210058	0.32154252	-0.21979945	0.78253389	-0.21871703	-0.065920968	0.82123093	0.33352776
186	0.74	0.13989603	0.015115921	0.026880821	-0.60381698	0.068557517	0.12309532	-0.0092171265	0.045640103	-0.011437299	-0.64544592	0.21487539	0.16789919	0.010542138	0.068186613	0.084226027	-0.59779433	0.2156912	0.081527566	-0.080429273	0.012207855	0.036017403	-0.68947067	0.25979762	0.11125968	0.030526415	0.45283365	-0.075655947	-0.2471268	0.41747049	0.23111759	0.034015419	0.45926588	0.047033283	-0.23782926	0.39381304	0.10252611	-0.17118433	0.82260992	-0.12499949	-0.22103591	0.81369136	0.24639689	-0.11021382	0.91225131	-0.056868661	-0.11639103	0.89922139	0.18367326	-0.2823393	0.95589085	0.05414505	-0.127642	1.3500765	-0.11216429	-0.13894309	1.3697637	0.21927424	-0.20188274	1.4113985	0.051628178	-0.29616747	1.0268149	-0.16161606	-0.25120057	1.022176	0.32178518	-0.21054523	0.78299311	-0.21857279	-0.062126371	0.82079478	0.33373258
187	0.744	0.13991116	0.015073475	0.026880871	-0.59464888	0.072051819	0.12464514	-0.0090178907	0.04547953	-0.011443936	-0.63371248	0.2194075	0.16856382	0.010779974	0.068090598	0.084227056	-0.58610744	0.21965748	0.082166409	-0.080431273	0.012242743	0.035997508	-0.67696841	0.26566136	0.11228868	0.03399411	0.45222253	-0.075586065	-0.23434019	0.41744784	0.23123594	0.036509423	0.45852892	0.046901422	-0.2248493	0.39405845	0.10235968	-0.16482837	0.82324212	-0.1253728	-0.2142921	0.81417319	0.24586419	-0.10406362	0.91285706	-0.057210388	-0.11040361	0.89999302	0.18339101	-0.27630277	0.95728028	0.054188477	-0.12039686	1.3507526	-0.11230229	-0.13230287	1.3704108	0.2192067	-0.19477406	1.4124419	0.051552535	-0.28843971	1.0271828	-0.16217536	-0.24567244	1.0233935	0.32204194	-0.20122504	0.78356204	-0.21836629	-0.058379083	0.82040749	0.3339332
188	0.748	0.13988901	0.015043798	0.026922356	-0.58425906	0.075839511	0.12647127	-0.0089345037	0.04537897	-0.011430091	-0.62175314	0.22392175	0.16908192	0.010943175	0.068012177	0.084256478	-0.57424602	0.22371084	0.082650386	-0.08047184	0.012261141	0.036009108	-0.66436619	0.27094757	0.112967	0.037237592	0.45174983	-0.075629398	-0.22108096	0.41757184	0.23113896	0.038760316	0.45801637	0.046873072	-0.2120546	0.39467647	0.10225266	-0.15860483	0.82406596	-0.12573082	-0.20779366	0.81481247	0.24540658	-0.09797243	0.91354729	-0.057503475	-0.10449524	0.90088704	0.18317797	-0.27008391	0.95877282	0.054311146	-0.11313573	1.351525	-0.11239232	-0.12576191	1.3711683	0.21916009	-0.1876607	1.4135661	0.051667594	-0.28075812	1.0276407	-0.16272788	-0.24015149	1.0246695	0.32231029	-0.19185773	0.78425555	-0.2181036	-0.054692518	0.82009198	0.33412339
189	0.752	0.1398359	0.015028433	0.026993433	-0.57278733	0.079788713	0.12856724	-0.0089354617	0.045334619	-0.011416665	-0.60952746	0.22843311	0.16947855	0.011043924	0.067951749	0.084301022	-0.56221128	0.2278145	0.083025809	-0.080544097	0.012265241	0.036030824	-0.6517882	0.27563691	0.1133123	0.040196533	0.45142651	-0.075774172	-0.20746868	0.41786639	0.23085333	0.040855279	0.45766156	0.046932786	-0.1995612	0.39563251	0.10235479	-0.15255959	0.82507525	-0.12608004	-0.20145171	0.81560406	0.24499288	-0.091954844	0.9143213	-0.057767696	-0.098668812	0.90189756	0.18301345	-0.26375033	0.96032493	0.054434428	-0.10586095	1.352391	-0.11242841	-0.11931409	1.3720378	0.21912759	-0.18059379	1.4147572	0.051801543	-0.27308279	1.0282036	-0.16326131	-0.23466667	1.0260173	0.32260735	-0.18243467	0.7850794	-0.21777612	-0.051082113	0.81985809	0.33429925
190	0.756	0.13976259	0.015024236	0.027070645	-0.56040443	0.083778346	0.13087187	-0.0089633252	0.045324805	-0.01142429	-0.59701223	0.23288896	0.16978656	0.011101295	0.067906655	0.084337123	-0.54998915	0.23184537	0.083340239	-0.080634	0.012256256	0.036039954	-0.63927233	0.27977315	0.11337563	0.042933783	0.4512272	-0.075980892	-0.19383335	0.4184364	0.23049836	0.042948071	0.45739861	0.047085955	-0.18737543	0.39687109	0.10264242	-0.14672102	0.82624018	-0.12643594	-0.19524427	0.81652148	0.24461699	-0.086015296	0.9151679	-0.058011612	-0.092935894	0.90301127	0.18286121	-0.25744661	0.96192357	0.054481348	-0.098587216	1.3533471	-0.11241321	-0.11294452	1.3730098	0.2191098	-0.17361796	1.416004	0.051810461	-0.26540662	1.0288793	-0.16379033	-0.22925951	1.02745	0.32295327	-0.17293557	0.78603373	-0.21736665	-0.047558899	0.81970863	0.33446267
